<svg width="7" height="26" viewBox="0 0 7 26" fill="none" xmlns="http://www.w3.org/2000/svg">
<path d="M3.16667 6.33333C4.90833 6.33333 6.33333 4.90833 6.33333 3.16667C6.33333 1.425 4.90833 0 3.16667 0C1.425 0 0 1.425 0 3.16667C0 4.90833 1.425 6.33333 3.16667 6.33333ZM3.16667 9.5C1.425 9.5 0 10.925 0 12.6667C0 14.4083 1.425 15.8333 3.16667 15.8333C4.90833 15.8333 6.33333 14.4083 6.33333 12.6667C6.33333 10.925 4.90833 9.5 3.16667 9.5ZM3.16667 19C1.425 19 0 20.425 0 22.1667C0 23.9083 1.425 25.3333 3.16667 25.3333C4.90833 25.3333 6.33333 23.9083 6.33333 22.1667C6.33333 20.425 4.90833 19 3.16667 19Z" fill="white"/>
</svg>
