<svg width="26" height="27" viewBox="0 0 26 27" fill="none" xmlns="http://www.w3.org/2000/svg">
<path fill-rule="evenodd" clip-rule="evenodd" d="M24.203 15.5774C24.68 15.8307 25.0479 16.2307 25.3068 16.6307C25.8109 17.4574 25.77 18.4707 25.2795 19.3641L24.3257 20.9641C23.8215 21.8174 22.8813 22.3507 21.9139 22.3507C21.4369 22.3507 20.9055 22.2174 20.4695 21.9507C20.1152 21.7241 19.7064 21.6441 19.2704 21.6441C17.9214 21.6441 16.7904 22.7507 16.7496 24.0707C16.7496 25.6041 15.496 26.8041 13.929 26.8041H12.0758C10.4952 26.8041 9.24159 25.6041 9.24159 24.0707C9.21434 22.7507 8.08337 21.6441 6.73439 21.6441C6.28473 21.6441 5.87594 21.7241 5.53529 21.9507C5.09926 22.2174 4.55421 22.3507 4.09092 22.3507C3.10985 22.3507 2.16964 21.8174 1.66548 20.9641L0.725278 19.3641C0.221113 18.4974 0.193861 17.4574 0.698026 16.6307C0.916044 16.2307 1.32483 15.8307 1.78811 15.5774C2.16964 15.3907 2.41491 15.0841 2.64656 14.7241C3.32786 13.5774 2.91908 12.0707 1.76086 11.3907C0.411878 10.6307 -0.024157 8.93739 0.752531 7.61739L1.66548 6.04406C2.45579 4.72406 4.14543 4.25739 5.50804 5.03072C6.69351 5.67072 8.23326 5.24406 8.92819 4.11072C9.14621 3.73739 9.26884 3.33739 9.24159 2.93739C9.21434 2.41739 9.36422 1.92406 9.62312 1.52406C10.1273 0.69739 11.0402 0.164057 12.0349 0.13739H13.9562C14.9646 0.13739 15.8775 0.69739 16.3817 1.52406C16.6269 1.92406 16.7904 2.41739 16.7496 2.93739C16.7223 3.33739 16.845 3.73739 17.063 4.11072C17.7579 5.24406 19.2976 5.67072 20.4967 5.03072C21.8457 4.25739 23.549 4.72406 24.3257 6.04406L25.2386 7.61739C26.0289 8.93739 25.5929 10.6307 24.2303 11.3907C23.0721 12.0707 22.6633 13.5774 23.3582 14.7241C23.5762 15.0841 23.8215 15.3907 24.203 15.5774ZM9.14618 13.4841C9.14618 15.5774 10.8767 17.2441 13.016 17.2441C15.1553 17.2441 16.8449 15.5774 16.8449 13.4841C16.8449 11.3907 15.1553 9.71072 13.016 9.71072C10.8767 9.71072 9.14618 11.3907 9.14618 13.4841Z" fill="white"/>
</svg>
